<?xml version="1.0" encoding="utf-8"?>
<!-- Generator: Adobe Illustrator 23.0.6, SVG Export Plug-In . SVG Version: 6.00 Build 0)  -->
<svg version="1.1" id="レイヤー_1" xmlns="http://www.w3.org/2000/svg" xmlns:xlink="http://www.w3.org/1999/xlink" x="0px"
	 y="0px" viewBox="0 0 332 100" style="enable-background:new 0 0 332 100;" xml:space="preserve">
<style type="text/css">
	.st0{fill:#25435F;}
</style>
<g>
	<g>
		<polygon class="st0" points="42.4,79.6 25.4,86.7 22.5,79.7 19.1,81.2 26.9,99.9 30.4,98.4 27.4,91.5 44.4,84.3 		"/>
	</g>
	<g>
		<path class="st0" d="M221.6,48.8c4.6,0.5,8.9-1.2,12.4-5.1l-3.6-6.8c-2,2.1-4.6,3.7-7.5,3.3c-5.3-0.6-8.1-6.3-7-15.4
			c1-8.9,5.5-13.8,10.5-13.2c2.6,0.3,4.4,2,5.9,4.3l5-5.9c-2.1-3.3-5.5-6.5-10.1-7c-9.1-1.1-17.9,6.5-19.6,21.2
			C205.8,39.1,212.5,47.8,221.6,48.8z"/>
	</g>
	<g>
		<path class="st0" d="M109.1,69c-0.3-1.9-1.4-3.7-4.3-3.2c-1.1,0.2-2.2,0.7-3,1.3l0.5,0.9c0.6-0.6,1.5-1,2.4-1.1
			c2.3-0.4,2.6,1.4,2.8,2.2c-3.8,0.6-5.7,2.2-5.3,4.5c0.2,1.4,1.5,2.5,3.4,2.2c1.4-0.2,2.4-1.1,2.8-2h0.1l0.4,1.2l1.4-0.2
			c-0.2-0.6-0.4-1.5-0.5-2.2L109.1,69z M105.9,74.7c-0.9,0.2-1.9-0.2-2.1-1.5c-0.3-2,2-2.7,4-3l0.3,1.8
			C108.3,73.2,107.4,74.5,105.9,74.7z"/>
	</g>
	<g>
		<path class="st0" d="M116.5,64c-1.6,0.2-2.7,1.2-3.1,2.2l0,0l-0.3-1.5l-1.4,0.2c0.1,0.8,0.3,1.5,0.4,2.5l1,7.1l1.6-0.2l-0.8-5.9
			c-0.2-1.7,1-2.9,2.3-3.1c1.8-0.2,2.6,1,2.8,2.6l0.8,5.7l1.6-0.2l-0.8-5.8C120,64.3,117.7,63.9,116.5,64z"/>
	</g>
	<g>
		<polygon class="st0" points="280.7,42.9 292.6,46.8 295.2,38.8 283.3,34.9 286.5,25.1 300.4,29.7 303.1,21.6 281.4,14.5 
			267.5,56.8 275.3,59.4 		"/>
	</g>
	<g>
		<path class="st0" d="M95.1,67.7c-1.6,0.3-2.6,1.4-2.9,2.4l0,0l-0.4-1.5l-1.4,0.3c0.2,0.8,0.4,1.5,0.6,2.4l1.5,7L94,78l-1.2-5.8
			c-0.4-1.6,0.8-3,2.1-3.3c1.8-0.4,2.6,0.8,3,2.4l1.2,5.6l1.5-0.3l-1.2-5.7C98.7,67.7,96.4,67.4,95.1,67.7z"/>
	</g>
	<g>
		<path class="st0" d="M241.3,50.9l4.4-9.9l10.8,2.3v10.8l8.5,1.8L263,10l-9.6-2l-20.3,41.2L241.3,50.9z M256.3,16.4h0.2
			c0,4.7-0.1,10.1-0.1,14.7v4.2l-7.6-1.6l1.7-3.9C252.5,25.7,254.5,20.8,256.3,16.4z"/>
	</g>
	<g>
		<polygon class="st0" points="20.6,27.9 17.2,29.4 22.7,42.5 17.2,44.8 12.2,33 8.8,34.5 13.8,46.3 9.2,48.2 3.9,35.5 0.5,36.9 
			7.8,54.4 28.2,45.8 		"/>
	</g>
	<g>
		<polygon class="st0" points="102.3,51 100.4,42.8 85.7,46.2 83.4,36.2 95.4,33.4 93.5,25.2 81.5,28 79.5,19.2 93.6,16 91.7,7.8 
			69.6,12.9 79.6,56.2 		"/>
	</g>
	<g>
		<polygon class="st0" points="36.1,64.8 27.2,68.5 23.3,59.2 32.2,55.5 30.2,50.7 9.9,59.3 11.9,64 19.9,60.7 23.8,70 15.8,73.4 
			17.8,78.1 38.1,69.5 		"/>
	</g>
	<g>
		<path class="st0" d="M70.5,44.9c-2.1-5.6-5.9-7.7-9.8-7.6L60.6,37c2.3-2.3,2.5-6.9,1.2-10.7c-2.9-8-9.3-8.3-16.3-5.8l-11.6,4.3
			l15.4,41.8L61.9,62C69.2,59.4,73.7,53.4,70.5,44.9z M47.7,38.8l-3.5-9.4l3.6-1.3c3.6-1.3,5.8-0.7,7,2.5c1.1,3,0.2,5.6-3.5,7
			L47.7,38.8z M54.2,56.6l-4-10.8l4.3-1.6c4.2-1.6,6.9-0.8,8.2,2.8c1.4,3.8-0.1,6.4-4.3,8L54.2,56.6z"/>
	</g>
	<g>
		<path class="st0" d="M72.5,73.9c-1.2,0.4-2.2,1.5-2.4,2.7l0,0L68,71l-1.5,0.5l4.8,13.3l1.5-0.5l-2-5.6c-0.6-1.7,0.5-3.1,1.7-3.5
			c1.7-0.6,2.7,0.5,3.3,1.9l1.9,5.4l1.5-0.5l-2-5.5C76,73.4,73.7,73.5,72.5,73.9z"/>
	</g>
	<g>
		<path class="st0" d="M83.1,70.6c-2.5,0.7-4.2,3-3.3,6.2c0.8,3,3.3,4.3,5.9,3.6c2.2-0.6,4.3-2.8,3.3-6.2
			C88.2,71.3,85.9,69.8,83.1,70.6z M85.4,79.2c-1.8,0.5-3.5-0.8-4-2.9c-0.5-1.8-0.1-4,2-4.6c2.2-0.6,3.6,1.2,4.1,2.9
			C88,76.7,87.2,78.7,85.4,79.2z"/>
	</g>
	<g>
		<path class="st0" d="M154.1,46.2c4.7-0.2,8.5-2.7,11.3-7.1l-4.6-6.1c-1.6,2.5-3.9,4.4-6.8,4.5c-5.3,0.3-9-4.9-9.5-14
			c-0.5-8.9,3.2-14.5,8.1-14.8c2.6-0.1,4.6,1.2,6.6,3.2l4-6.7c-2.6-2.9-6.5-5.4-11.2-5.2c-9.1,0.5-16.6,9.4-15.8,24.2
			C136.9,39.3,144.9,46.7,154.1,46.2z"/>
	</g>
	<g>
		<path class="st0" d="M62.8,80.5c-2.1,0.2-3.2,0-3.8-1.2c-0.4-0.9-0.3-2.2,1.5-3.2c1.1-0.6,2.1-0.6,2.5-0.6v-1.3
			c-0.6,0-1.7,0.2-2.9,0.8c-2.4,1.2-3.3,3.4-2.3,5.2c0.8,1.7,2.7,2,5,1.7c2-0.2,3.1,0.1,3.7,1.3c0.7,1.3,0.1,2.7-1.6,3.6
			c-1,0.5-2.2,0.8-3.2,0.7l0.2,1.3c0.9,0.1,2.3-0.2,3.5-0.8c2.8-1.4,3.5-3.7,2.5-5.6C66.9,80.7,65.3,80.2,62.8,80.5z"/>
	</g>
	<g>
		<path class="st0" d="M280.9,76.4c0.2,0.1,0.4,0.1,0.5,0.2l0.5-1.3c-0.2-0.1-0.3-0.1-0.4-0.2c-1.2-0.4-2.5,0.1-3.3,1h-0.1l0.5-1.8
			l-1.3-0.5c-0.2,0.9-0.5,1.8-0.9,2.8l-2.2,6.4l1.5,0.5l1.7-5C278,77,279.3,75.8,280.9,76.4z"/>
	</g>
	<g>
		<path class="st0" d="M251.3,68.5l2.6,0.5l0.2-1.1l-2.6-0.5l0.4-2.2l-1.6,0.2L250,67l-1.6-0.3l-0.2,1.1l1.6,0.3l-1,5.4
			c-0.2,1-0.5,3.1,1.9,3.6c0.7,0.1,1.2,0.1,1.6,0.1l0.1-1.1c-0.3,0-0.6,0-1.1-0.1c-1-0.2-1.3-0.9-1-2.1L251.3,68.5z"/>
	</g>
	<g>
		<path class="st0" d="M270.9,78.1c-0.5,1.6-2.1,2.1-3.3,1.8c-1.7-0.5-1.9-1.9-1.4-3.7l1.5-5.2l-1.5-0.4l-1.5,5.5
			c-0.9,3.2,0.6,4.5,2.1,4.9c1.7,0.5,3-0.2,3.7-0.8h0.1l-0.3,1.5l1.4,0.4c0.2-0.7,0.3-1.5,0.6-2.5l1.9-6.8l-1.5-0.4L270.9,78.1z"/>
	</g>
	<g>
		<path class="st0" d="M259.4,68.8c-1.1-0.3-2.3-0.2-3.3,0.1l0.1,1.1c0.8-0.3,1.7-0.3,2.6-0.1c2.3,0.5,1.9,2.3,1.7,3.1
			c-3.7-0.9-6.1-0.1-6.6,2.1c-0.3,1.4,0.4,2.9,2.3,3.3c1.4,0.3,2.6-0.1,3.3-0.7h0.1l-0.1,1.2l1.4,0.3c0-0.7,0.2-1.5,0.4-2.3l0.8-3.6
			C262.6,71.5,262.3,69.4,259.4,68.8z M260,75.8c-0.3,1.1-1.6,2-3.1,1.6c-0.9-0.2-1.6-0.9-1.3-2.1c0.5-2,2.9-1.7,4.8-1.3L260,75.8z"
			/>
	</g>
	<g>
		<path class="st0" d="M235,64.4c-2.8-0.4-4.9,1.5-5.3,4.5c-0.4,2.9,1.1,5.1,4.1,5.5c1.6,0.2,2.7,0,3.3-0.2l-0.2-1.1
			c-0.7,0.2-1.5,0.3-2.8,0.1c-1.8-0.3-3.3-1.5-3-4.1l7,1c0.1-0.2,0.1-0.5,0.2-0.8C238.6,67.6,238.2,64.8,235,64.4z M236.9,68.8
			l-5.4-0.8c0.3-1.3,1.4-2.8,3.3-2.6C236.7,65.8,237.1,67.5,236.9,68.8z"/>
	</g>
	<g>
		<path class="st0" d="M240.6,68c-0.2,1.2,0.5,2.2,2.2,3.1c1.3,0.7,1.7,1.3,1.6,2.2c-0.1,0.9-0.9,1.4-2.3,1.2
			c-0.9-0.1-1.7-0.6-2.2-1l-0.6,1c0.6,0.5,1.6,0.9,2.6,1.1c2.2,0.4,3.8-0.5,4.1-2.2c0.2-1.4-0.6-2.4-2.1-3.3c-1.2-0.7-1.7-1.2-1.6-2
			c0.1-0.8,0.8-1.3,2-1.1c0.9,0.2,1.6,0.6,1.9,0.9l0.6-1c-0.5-0.4-1.3-0.8-2.2-1C242.3,65.5,240.8,66.5,240.6,68z"/>
	</g>
	<g>
		<polygon class="st0" points="327.8,42.6 331.5,35 311.3,25 291.4,64.8 312.2,75.2 316,67.6 302.5,60.9 307.1,51.7 318.1,57.2 
			321.9,49.6 310.8,44.2 314.8,36.2 		"/>
	</g>
	<g>
		<path class="st0" d="M287,77.2c-1.1-0.5-2.2-0.6-3.2-0.5v1.1c0.8-0.1,1.8,0,2.6,0.4c2.2,0.9,1.4,2.6,1.1,3.4
			c-3.5-1.5-6-1.2-6.9,0.9c-0.6,1.3-0.1,2.9,1.7,3.7c1.3,0.6,2.6,0.4,3.4-0.1h0.1l-0.4,1.2l1.3,0.6c0.1-0.7,0.5-1.4,0.8-2.2l1.5-3.4
			C289.6,80.5,289.7,78.4,287,77.2z M286.3,84.2c-0.5,1.1-1.9,1.7-3.3,1c-0.9-0.4-1.4-1.2-0.9-2.3c0.8-1.9,3.2-1.1,5-0.4L286.3,84.2
			z"/>
	</g>
	<g>
		<path class="st0" d="M223.8,59.3c-1.1-0.1-2.4-0.2-3.3-0.1L219,72.4l1.6,0.2l0.7-5.9l1.8,0.2c1.7,0.2,2.4,1.1,2.6,3
			c0.2,1.7,0.4,2.9,0.6,3.3l1.6,0.2c-0.2-0.5-0.4-1.8-0.7-3.7c-0.2-1.5-0.7-2.6-1.8-3v-0.1c1.6-0.3,2.9-1.4,3.1-3.1
			c0.1-1-0.2-2-0.8-2.6C226.9,60,225.7,59.5,223.8,59.3z M226.8,63.4c-0.2,1.6-1.6,2.5-3.6,2.3l-1.9-0.2l0.6-5.1
			c0.3,0,0.9,0,1.8,0.1C225.5,60.6,227.1,61.4,226.8,63.4z"/>
	</g>
	<g>
		<path class="st0" d="M307.6,88.4l-1.4-0.8l-1.3,1.2l-1.1-1.2l-0.9,0.8l1.1,1.2l-4.2,3.7c-0.8,0.7-2.3,2.1-0.7,4
			c0.4,0.5,0.9,0.8,1.2,1l0.8-0.8c-0.2-0.1-0.5-0.3-0.8-0.7c-0.7-0.8-0.4-1.5,0.5-2.3l4.2-3.7l1.8,2l0.9-0.8l-1.8-2L307.6,88.4z"/>
	</g>
	<g>
		<path class="st0" d="M298.1,83c-1.4-0.9-2.8-0.8-3.8-0.3l0,0l0.8-1.4l-1.2-0.8c-0.4,0.7-0.7,1.3-1.3,2.2l-3.8,6.1l1.3,0.8l3.2-5
			c0.9-1.4,2.6-1.6,3.8-0.9c1.5,1,1.3,2.5,0.5,3.8l-3.1,4.8l1.3,0.8l3.1-5C300.7,85.5,299.2,83.7,298.1,83z"/>
	</g>
	<g>
		<path class="st0" d="M156.1,64.6c-0.1-1.9-0.9-3.8-3.9-3.7c-1.2,0.1-2.3,0.4-3.1,1l0.4,1c0.7-0.5,1.6-0.8,2.5-0.8
			c2.4-0.1,2.4,1.7,2.5,2.5c-3.8,0.2-5.9,1.5-5.8,3.8c0.1,1.4,1.2,2.7,3.1,2.6c1.5-0.1,2.5-0.8,3-1.6h0.1l0.2,1.2l1.4-0.1
			c-0.2-0.7-0.2-1.5-0.3-2.3L156.1,64.6z M152.2,69.9c-0.9,0-1.8-0.5-1.9-1.7c-0.1-2,2.3-2.4,4.3-2.5l0.1,1.8
			C154.7,68.7,153.7,69.8,152.2,69.9z"/>
	</g>
	<g>
		<path class="st0" d="M173.3,60.4c-1.3,0-2.5,0.7-3.2,1.7l0,0v-6h-1.6v14.2h1.6v-5.9c0-1.8,1.5-2.7,2.7-2.7c1.8,0,2.4,1.4,2.4,2.9
			v5.7h1.6v-5.9C176.8,61.1,174.6,60.4,173.3,60.4z"/>
	</g>
	<g>
		<path class="st0" d="M163.8,69.4c-2.1,0.1-3.6-1.4-3.7-3.7c0-2.1,1.2-3.9,3.6-3.9c1,0,1.7,0.2,2.1,0.4l0.4-1.2
			c-0.4-0.2-1.3-0.5-2.5-0.5c-3.2,0.1-5.3,2.3-5.2,5.3s2.1,4.9,5,4.8c1.3,0,2.3-0.4,2.8-0.6l-0.3-1.1
			C165.5,69.1,164.8,69.4,163.8,69.4z"/>
	</g>
	<g>
		<path class="st0" d="M135.9,46.3L118.8,3.7L109.1,5l-5.3,45.6l8.3-1.1l0.8-10.8l10.9-1.5l3.6,10.2L135.9,46.3z M113.4,30.7
			l0.3-4.2c0.4-4.5,0.7-9.8,0.9-14.6h0.2c1.6,4.5,3.2,9.6,4.8,13.8l1.4,4L113.4,30.7z"/>
	</g>
	<g>
		<path class="st0" d="M133.5,64.8L133.5,64.8c1.4-0.7,2.3-1.9,2.2-3.2c-0.1-1-0.6-1.7-1.3-2.2c-0.9-0.6-2.1-0.8-3.9-0.6
			c-1.2,0.1-2.3,0.3-3.1,0.6l1.2,13.2c0.6,0,1.5,0,2.7-0.1c2.2-0.2,3.7-0.7,4.6-1.7c0.6-0.7,1-1.6,0.9-2.8
			C136.6,65.9,134.9,65,133.5,64.8z M129.1,60.1c0.3-0.1,0.8-0.2,1.6-0.3c2-0.2,3.3,0.4,3.4,2l0,0c0.1,1.4-1,2.5-2.9,2.7l-1.7,0.2
			L129.1,60.1z M131.6,71.2c-0.7,0.1-1.2,0.1-1.5,0.1l-0.5-5.4l1.5-0.1c1.9-0.2,3.9,0.4,4,2.4C135.3,70.1,133.6,71,131.6,71.2z"/>
	</g>
	<g>
		<path class="st0" d="M209.1,61.7c-2.8-0.2-4.8,1.8-5,4.9c-0.2,2.9,1.4,5,4.5,5.2c1.6,0.1,2.7-0.1,3.3-0.4l-0.2-1.1
			c-0.7,0.2-1.5,0.4-2.7,0.3c-1.9-0.1-3.4-1.3-3.2-3.9l7,0.5c0-0.2,0.1-0.5,0.1-0.8C212.9,64.7,212.3,61.9,209.1,61.7z M211.2,66
			l-5.5-0.4c0.2-1.3,1.2-2.9,3.1-2.8C210.9,62.9,211.3,64.7,211.2,66z"/>
	</g>
	<g>
		<path class="st0" d="M142.7,61.4c-2.8,0.2-4.5,2.5-4.3,5.5c0.2,2.9,2.1,4.7,5.1,4.5c1.6-0.1,2.6-0.5,3.2-0.8l-0.4-1
			c-0.6,0.3-1.4,0.6-2.7,0.7c-1.9,0.1-3.6-0.8-3.8-3.4l7-0.5c0-0.2,0-0.5,0-0.8C146.9,63.9,145.9,61.2,142.7,61.4z M139.9,65.8
			c0.1-1.3,0.8-3.1,2.7-3.2c2-0.1,2.7,1.5,2.8,2.8L139.9,65.8z"/>
	</g>
	<g>
		<path class="st0" d="M201,60.8c0.1-1.6,0.6-3,2.2-2.9c0.5,0,0.9,0.2,1.2,0.3l0.3-1.1c-0.3-0.2-0.9-0.3-1.5-0.4
			c-0.8,0-1.7,0.2-2.4,0.7c-1.2,1-1.3,2.6-1.4,3.8l-1.4-0.1l-0.1,1.2l1.4,0.1l-0.5,8.5l1.6,0.1l0.5-8.5l2.5,0.1l0.1-1.1l-2.5-0.1
			L201,60.8z"/>
	</g>
	<g>
		<path class="st0" d="M195.9,64.7c0.1-1.9-0.6-3.9-3.5-4c-1.2,0-2.3,0.2-3.2,0.7l0.3,1c0.7-0.4,1.7-0.6,2.6-0.6
			c2.4,0.1,2.3,1.9,2.3,2.7c-3.8-0.2-6.1,1-6.1,3.3c-0.1,1.4,0.9,2.8,2.9,2.9c1.5,0.1,2.6-0.6,3.1-1.3h0.1l0.1,1.2l1.4,0.1
			c-0.1-0.7-0.1-1.5-0.1-2.3L195.9,64.7z M194.3,67.5c0,1.2-1.2,2.2-2.7,2.2c-0.9,0-1.8-0.6-1.7-1.9c0.1-2,2.5-2.2,4.5-2.1
			L194.3,67.5z"/>
	</g>
	<g>
		<path class="st0" d="M184.5,61.7c1,0,1.7,0.3,2.1,0.5L187,61c-0.4-0.2-1.3-0.5-2.5-0.6c-3.2-0.1-5.3,2.1-5.4,5.1
			c-0.1,3,1.9,5,4.8,5c1.3,0,2.4-0.3,2.8-0.5l-0.3-1.1c-0.5,0.2-1.2,0.5-2.3,0.4c-2.1,0-3.6-1.5-3.5-3.9
			C180.8,63.5,182.1,61.7,184.5,61.7z"/>
	</g>
	<g>
		<polygon class="st0" points="190.9,45.4 199.1,45.6 200.4,1.1 192.2,0.9 191.7,18 179.3,17.7 179.8,0.5 171.6,0.3 170.3,44.8 
			178.4,45 179,26.4 191.5,26.8 		"/>
	</g>
</g>
</svg>
