<?xml version="1.0" encoding="utf-8"?>
<!-- Generator: Adobe Illustrator 23.0.6, SVG Export Plug-In . SVG Version: 6.00 Build 0)  -->
<svg version="1.1" id="レイヤー_1" xmlns="http://www.w3.org/2000/svg" xmlns:xlink="http://www.w3.org/1999/xlink" x="0px"
	 y="0px" viewBox="0 0 142.3 48.25" style="enable-background:new 0 0 142.3 48.25;" xml:space="preserve">
<style type="text/css">
	.st0{fill:#FFFFFF;}
</style>
<g>
	<g>
		<g>
			<path class="st0" d="M27.39,28.19c0.34-0.5,0.57-1,0.7-1.5c0.1-0.36,0.11-0.77,0.04-1.23c-0.09-0.6-0.32-1.16-0.68-1.68
				c-0.45-0.66-1.01-1.14-1.67-1.45s-1.43-0.45-2.3-0.42c0.1-0.56,0.09-1.1-0.02-1.61c-0.11-0.51-0.32-0.98-0.63-1.43
				c-0.65-0.94-1.56-1.52-2.74-1.72c-1.17-0.2-2.33,0.09-3.48,0.88l-4.82,3.32c-0.46,0.32-0.73,0.64-0.79,0.97s0.01,0.64,0.22,0.95
				c0.21,0.31,0.48,0.49,0.81,0.54c0.33,0.06,0.72-0.08,1.19-0.4l0.3-0.21l5.56,8.06l-0.3,0.21c-0.46,0.31-0.72,0.64-0.79,0.96
				c-0.07,0.33,0,0.64,0.21,0.95c0.21,0.31,0.48,0.49,0.81,0.54c0.33,0.06,0.72-0.08,1.19-0.4l5.64-3.89
				C26.54,29.17,27.05,28.68,27.39,28.19z M15.44,21.89l2.5-1.73c0.69-0.48,1.29-0.69,1.8-0.64c0.51,0.05,0.88,0.26,1.13,0.62
				c0.28,0.41,0.35,0.87,0.2,1.37c-0.22,0.75-0.7,1.39-1.46,1.91l-2.11,1.45L15.44,21.89z M25.71,26.15
				c-0.15,0.47-0.61,0.97-1.39,1.51L21,29.95l-2.07-3l2.54-1.75c0.9-0.62,1.73-0.9,2.49-0.83c0.76,0.07,1.28,0.31,1.57,0.73
				C25.76,25.44,25.82,25.79,25.71,26.15z"/>
			<path class="st0" d="M25.02,15.22c0.31,0.11,0.73,0.05,1.24-0.18l0.33-0.15l4.04,8.92l-0.33,0.15c-0.5,0.23-0.82,0.5-0.95,0.81
				s-0.11,0.63,0.04,0.97c0.15,0.34,0.39,0.57,0.7,0.68c0.31,0.11,0.73,0.05,1.24-0.18l10.01-4.53l-1.59-3.51
				c-0.25-0.55-0.52-0.9-0.83-1.04c-0.3-0.14-0.61-0.15-0.92-0.01c-0.32,0.14-0.52,0.38-0.61,0.7s-0.01,0.76,0.24,1.31l0.56,1.23
				l-5.42,2.46l-1.52-3.35l1.87-0.85c0.27,0.6,0.5,0.96,0.68,1.09c0.38,0.27,0.77,0.31,1.16,0.13c0.37-0.17,0.59-0.48,0.66-0.93
				c0.03-0.22-0.06-0.58-0.29-1.08l-1.19-2.62c-0.25-0.55-0.52-0.9-0.83-1.04c-0.3-0.14-0.61-0.15-0.92-0.01
				c-0.39,0.18-0.62,0.5-0.67,0.96c-0.03,0.22,0.09,0.62,0.36,1.22l-1.87,0.85l-1.49-3.29l4.96-2.24l0.54,1.19
				c0.25,0.55,0.52,0.89,0.82,1.03c0.3,0.14,0.61,0.14,0.93-0.01c0.32-0.14,0.52-0.38,0.61-0.7c0.09-0.32,0.01-0.75-0.24-1.29
				l-1.57-3.47l-9.54,4.31c-0.51,0.23-0.83,0.5-0.95,0.81s-0.11,0.64,0.05,0.98C24.48,14.88,24.71,15.1,25.02,15.22z"/>
			<path class="st0" d="M46.4,17.96c-0.29-0.16-0.71-0.17-1.25-0.02l-0.55,0.15l0.14-1.62l5.46-1.51l0.94,1.32l-0.55,0.15
				c-0.54,0.15-0.9,0.37-1.06,0.66s-0.2,0.61-0.11,0.96c0.1,0.36,0.3,0.62,0.59,0.78c0.29,0.16,0.71,0.17,1.25,0.02l3.03-0.84
				c0.54-0.15,0.89-0.37,1.06-0.65c0.16-0.29,0.2-0.61,0.1-0.96c-0.12-0.42-0.38-0.72-0.79-0.88c-0.2-0.08-0.57-0.05-1.09,0.1
				L45.83,5.01l-4.86,1.33c-0.54,0.15-0.9,0.37-1.06,0.66c-0.17,0.29-0.2,0.61-0.1,0.97c0.1,0.36,0.3,0.62,0.59,0.78
				c0.29,0.16,0.71,0.17,1.25,0.02l1.47-0.41l-0.92,10.41c-0.56,0.14-0.93,0.35-1.11,0.65c-0.18,0.29-0.22,0.62-0.12,0.98
				s0.3,0.62,0.59,0.78c0.29,0.16,0.71,0.17,1.25,0.02l3.03-0.84c0.54-0.15,0.9-0.37,1.06-0.66s0.2-0.61,0.11-0.96
				C46.89,18.38,46.7,18.12,46.4,17.96z M45.48,8.53l3.13,4.28l-3.63,1L45.48,8.53z"/>
			<path class="st0" d="M54.68,11.51c0.16,1.23,0.62,2.33,1.38,3.3c0.76,0.96,1.61,1.63,2.57,2c1.18,0.46,2.45,0.61,3.82,0.43
				c1.17-0.15,2.22-0.51,3.13-1.07c0.68-0.42,1.21-0.94,1.6-1.56c0.27-0.43,0.38-0.81,0.33-1.15c-0.04-0.34-0.2-0.62-0.46-0.84
				c-0.27-0.22-0.55-0.31-0.86-0.27c-0.17,0.02-0.32,0.08-0.45,0.17s-0.29,0.29-0.5,0.58c-0.34,0.48-0.67,0.81-1,1
				c-0.56,0.33-1.27,0.55-2.13,0.66c-1.44,0.19-2.61-0.07-3.52-0.76c-0.91-0.69-1.45-1.64-1.6-2.83l-0.21-1.61
				c-0.13-1-0.02-1.89,0.33-2.68c0.35-0.78,0.79-1.37,1.33-1.77c0.54-0.4,1.15-0.64,1.85-0.73c0.56-0.07,1.13-0.03,1.71,0.11
				c0.58,0.15,1.05,0.38,1.41,0.7c0.18,0.17,0.32,0.41,0.42,0.75c0.16,0.5,0.34,0.83,0.55,0.99s0.47,0.22,0.78,0.18
				c0.34-0.04,0.6-0.21,0.78-0.49c0.18-0.28,0.23-0.72,0.16-1.32l-0.27-2.11c-0.08-0.6-0.24-1.01-0.49-1.23
				c-0.25-0.22-0.54-0.31-0.88-0.27c-0.2,0.03-0.37,0.1-0.53,0.23c-0.16,0.13-0.29,0.3-0.41,0.53c-0.55-0.27-1.12-0.46-1.73-0.55
				c-0.6-0.09-1.24-0.09-1.91-0.01c-1.11,0.14-2.13,0.58-3.04,1.32c-0.92,0.73-1.58,1.7-2,2.89c-0.42,1.19-0.54,2.43-0.37,3.72
				L54.68,11.51z"/>
			<path class="st0" d="M74.3,13.97c-0.24-0.23-0.64-0.36-1.2-0.36l-0.36,0l0.04-3.63l4.98,0.06l-0.04,3.63l-0.36,0
				c-0.55-0.01-0.95,0.1-1.2,0.33c-0.25,0.23-0.37,0.53-0.37,0.89c0,0.37,0.11,0.68,0.35,0.91c0.24,0.23,0.63,0.36,1.2,0.36
				l2.86,0.03c0.56,0.01,0.96-0.1,1.21-0.33c0.24-0.23,0.36-0.53,0.37-0.89c0.01-0.46-0.18-0.82-0.55-1.08
				c-0.17-0.12-0.56-0.19-1.16-0.2l0.11-9.79c0.41-0.04,0.72-0.17,0.93-0.39c0.21-0.23,0.32-0.51,0.32-0.85
				c0-0.37-0.11-0.68-0.35-0.91c-0.24-0.23-0.64-0.35-1.2-0.36L77.5,1.35c-0.56-0.01-0.96,0.1-1.2,0.33s-0.36,0.53-0.37,0.91
				c0,0.37,0.11,0.68,0.35,0.91c0.24,0.23,0.64,0.35,1.2,0.36l0.36,0l-0.04,3.66l-4.98-0.06l0.04-3.66l0.36,0
				c0.56,0.01,0.96-0.1,1.21-0.33s0.36-0.53,0.37-0.91c0-0.37-0.11-0.68-0.35-0.91s-0.64-0.35-1.2-0.36l-2.38-0.04
				c-0.56-0.01-0.96,0.1-1.2,0.33c-0.24,0.23-0.36,0.53-0.37,0.91c0,0.34,0.1,0.63,0.3,0.86c0.21,0.23,0.51,0.37,0.92,0.41
				l-0.11,9.79c-0.59-0.01-0.98,0.04-1.16,0.17c-0.38,0.25-0.56,0.6-0.57,1.06c0,0.37,0.11,0.68,0.35,0.91s0.64,0.36,1.2,0.36
				l2.86,0.03c0.56,0.01,0.96-0.1,1.2-0.33c0.24-0.23,0.36-0.53,0.37-0.89C74.65,14.51,74.53,14.2,74.3,13.97z"/>
			<path class="st0" d="M94.24,17.65c0.77-0.21,1.43-0.56,1.97-1.05c0.38-0.34,0.59-0.67,0.64-1.01c0.05-0.34-0.02-0.65-0.21-0.94
				c-0.19-0.29-0.44-0.45-0.75-0.5c-0.17-0.03-0.33-0.01-0.48,0.04c-0.15,0.06-0.36,0.19-0.64,0.41c-0.46,0.37-0.87,0.59-1.24,0.68
				c-0.63,0.16-1.37,0.17-2.23,0.03c-1.43-0.22-2.49-0.8-3.17-1.72c-0.68-0.92-0.93-1.98-0.74-3.17l0.25-1.6
				c0.16-1,0.51-1.82,1.07-2.48c0.56-0.65,1.15-1.1,1.77-1.33c0.63-0.23,1.29-0.29,1.98-0.19c0.56,0.09,1.09,0.28,1.61,0.59
				s0.9,0.66,1.15,1.07c0.13,0.21,0.19,0.49,0.19,0.83c0.01,0.52,0.1,0.89,0.25,1.1c0.16,0.21,0.39,0.35,0.7,0.39
				C96.7,8.88,97,8.8,97.25,8.58c0.25-0.22,0.43-0.63,0.52-1.22l0.33-2.1c0.09-0.59,0.05-1.03-0.12-1.32s-0.43-0.45-0.77-0.5
				c-0.19-0.03-0.38-0.01-0.57,0.07s-0.37,0.21-0.54,0.4c-0.45-0.42-0.95-0.75-1.51-1.01s-1.17-0.44-1.83-0.54
				c-1.11-0.17-2.21-0.04-3.29,0.41s-1.99,1.19-2.73,2.21s-1.2,2.18-1.4,3.47l-0.26,1.68c-0.19,1.23-0.06,2.41,0.4,3.55
				s1.09,2.02,1.9,2.64c1,0.77,2.18,1.27,3.55,1.48C92.1,17.99,93.2,17.94,94.24,17.65z"/>
			<path class="st0" d="M111.15,22.45c0.29-0.15,0.5-0.4,0.61-0.75c0.13-0.42,0.07-0.81-0.18-1.17c-0.13-0.18-0.45-0.35-0.97-0.51
				L109.93,6.9l-4.8-1.54c-0.54-0.17-0.95-0.18-1.25-0.03c-0.3,0.15-0.5,0.4-0.62,0.76c-0.11,0.36-0.09,0.68,0.07,0.98
				s0.5,0.53,1.04,0.7l1.45,0.46l-6.47,8.21c-0.54-0.19-0.97-0.21-1.28-0.06c-0.31,0.15-0.52,0.4-0.64,0.76
				c-0.11,0.36-0.09,0.68,0.06,0.98c0.16,0.29,0.5,0.53,1.04,0.7l2.99,0.95c0.53,0.17,0.95,0.18,1.25,0.03
				c0.3-0.15,0.5-0.4,0.61-0.75c0.11-0.36,0.09-0.68-0.07-0.98s-0.5-0.53-1.04-0.7l-0.54-0.17l1.01-1.28l5.4,1.72l0.07,1.62
				l-0.54-0.17c-0.54-0.17-0.95-0.18-1.25-0.03c-0.3,0.15-0.5,0.4-0.61,0.75c-0.11,0.36-0.09,0.68,0.07,0.98
				c0.16,0.29,0.5,0.53,1.04,0.7l2.99,0.95C110.44,22.59,110.86,22.6,111.15,22.45z M104.4,13.81l3.31-4.15l0.28,5.29L104.4,13.81z"
				/>
			<path class="st0" d="M113.95,24.24l4.5,2.38c0.5,0.26,0.9,0.35,1.22,0.25s0.57-0.3,0.74-0.63c0.17-0.33,0.21-0.65,0.11-0.97
				c-0.1-0.32-0.4-0.61-0.9-0.87l-2.11-1.12l1.71-3.24l1.81,0.96c-0.31,0.58-0.46,0.98-0.44,1.2c0.02,0.46,0.22,0.79,0.6,0.99
				c0.31,0.16,0.62,0.18,0.93,0.06s0.61-0.45,0.89-0.99l1.35-2.55c0.28-0.53,0.39-0.96,0.32-1.29c-0.07-0.33-0.26-0.57-0.56-0.73
				c-0.38-0.2-0.77-0.18-1.17,0.06c-0.19,0.11-0.43,0.46-0.74,1.03l-1.81-0.96l1.69-3.21l5.26,2.78l-0.62,1.17
				c-0.28,0.53-0.39,0.96-0.31,1.28c0.07,0.32,0.26,0.57,0.56,0.73c0.31,0.16,0.62,0.18,0.93,0.06c0.31-0.13,0.61-0.45,0.88-0.98
				l1.79-3.38l-9.7-5.15c-0.5-0.26-0.9-0.35-1.22-0.25c-0.32,0.09-0.57,0.31-0.74,0.64c-0.18,0.33-0.21,0.65-0.11,0.97
				c0.1,0.32,0.4,0.61,0.9,0.87l0.32,0.17l-4.58,8.65l-0.32-0.17c-0.49-0.26-0.9-0.34-1.22-0.25c-0.32,0.09-0.57,0.3-0.74,0.62
				c-0.17,0.33-0.21,0.65-0.11,0.97S113.45,23.98,113.95,24.24z"/>
			<path class="st0" d="M132.78,17.83c-0.44-0.34-0.83-0.5-1.16-0.46c-0.33,0.04-0.61,0.21-0.84,0.5c-0.23,0.3-0.32,0.61-0.27,0.94
				s0.29,0.67,0.74,1.01l0.29,0.22l-5.98,7.75l-0.29-0.22c-0.44-0.34-0.83-0.49-1.16-0.45s-0.61,0.2-0.84,0.49
				c-0.23,0.3-0.32,0.61-0.27,0.94c0.05,0.33,0.29,0.67,0.74,1.01l8.7,6.71l2.35-3.06c0.37-0.48,0.54-0.88,0.53-1.22
				c-0.02-0.34-0.16-0.61-0.43-0.82c-0.28-0.21-0.58-0.28-0.91-0.21c-0.33,0.07-0.67,0.34-1.04,0.82l-0.83,1.07l-4.71-3.63
				l2.24-2.91l1.62,1.25c-0.4,0.52-0.62,0.89-0.64,1.11c-0.06,0.46,0.09,0.82,0.43,1.09c0.32,0.25,0.7,0.3,1.13,0.14
				c0.21-0.07,0.48-0.33,0.82-0.76l1.76-2.28c0.37-0.48,0.54-0.88,0.53-1.22c-0.01-0.33-0.16-0.61-0.43-0.81
				c-0.34-0.26-0.73-0.31-1.16-0.14c-0.2,0.08-0.51,0.38-0.9,0.89l-1.62-1.25l2.21-2.86l4.31,3.32l-0.8,1.03
				c-0.37,0.48-0.54,0.88-0.53,1.21c0.02,0.33,0.16,0.6,0.44,0.82s0.58,0.28,0.9,0.21c0.32-0.07,0.67-0.35,1.03-0.82l2.33-3.02
				L132.78,17.83z"/>
			<path class="st0" d="M27.15,38.45c-0.21-0.02-0.4,0.02-0.59,0.11c-0.18,0.09-0.41,0.24-0.7,0.46c-0.28,0.22-0.46,0.35-0.53,0.39
				c-0.11,0.06-0.21,0.08-0.3,0.08s-0.17-0.03-0.23-0.09c-0.09-0.08-0.13-0.21-0.11-0.39c0.01-0.18,0.1-0.36,0.26-0.55
				c0.11-0.13,0.23-0.22,0.36-0.28s0.24-0.09,0.34-0.08c0.06,0,0.14,0.03,0.24,0.08s0.18,0.07,0.23,0.06
				c0.08-0.01,0.14-0.05,0.2-0.12c0.07-0.08,0.1-0.16,0.09-0.25c-0.01-0.09-0.07-0.19-0.19-0.29l-0.37-0.32
				c-0.12-0.1-0.22-0.15-0.31-0.15c-0.09,0-0.17,0.04-0.24,0.12c-0.06,0.07-0.09,0.16-0.08,0.28c-0.14,0.04-0.27,0.11-0.4,0.19
				c-0.13,0.09-0.25,0.2-0.36,0.33c-0.29,0.33-0.44,0.67-0.44,1.03c-0.01,0.36,0.11,0.64,0.34,0.85c0.15,0.13,0.32,0.21,0.52,0.24
				c0.2,0.03,0.4,0,0.6-0.08c0.2-0.08,0.44-0.24,0.74-0.48c0.25-0.2,0.41-0.32,0.49-0.36c0.12-0.07,0.23-0.11,0.33-0.1
				c0.09,0,0.17,0.03,0.23,0.08c0.09,0.08,0.13,0.19,0.1,0.34c-0.03,0.24-0.14,0.47-0.34,0.7c-0.13,0.15-0.27,0.26-0.43,0.34
				c-0.16,0.08-0.29,0.12-0.38,0.13c-0.05,0-0.11-0.02-0.2-0.06s-0.17-0.05-0.23-0.04c-0.07,0.01-0.13,0.05-0.18,0.11
				c-0.07,0.08-0.1,0.16-0.09,0.26c0.01,0.09,0.07,0.19,0.19,0.29l0.33,0.29c0.12,0.1,0.22,0.15,0.31,0.15
				c0.09,0,0.17-0.04,0.24-0.12c0.04-0.04,0.06-0.08,0.07-0.12c0.01-0.04,0.01-0.1,0-0.19c0.18-0.07,0.34-0.16,0.49-0.26
				s0.29-0.23,0.41-0.37c0.32-0.37,0.49-0.75,0.51-1.16c0.01-0.31-0.1-0.56-0.34-0.78C27.54,38.55,27.35,38.47,27.15,38.45z"/>
			<path class="st0" d="M31.23,36.26c-0.06,0.01-0.16,0.07-0.29,0.18l-0.79-0.93c-0.16-0.19-0.34-0.31-0.54-0.35
				c-0.2-0.05-0.39-0.04-0.58,0.02c-0.19,0.06-0.38,0.17-0.56,0.32c-0.11,0.1-0.21,0.21-0.3,0.33c-0.09,0.12-0.16,0.26-0.21,0.42
				l-0.9-1.06l-0.61,0.52c-0.13,0.11-0.2,0.21-0.21,0.3c-0.01,0.09,0.01,0.17,0.07,0.25c0.06,0.07,0.14,0.11,0.23,0.11
				c0.09,0,0.2-0.05,0.33-0.16l0.09-0.08l1.82,2.15c-0.13,0.11-0.21,0.2-0.23,0.26c-0.04,0.12-0.02,0.23,0.05,0.32
				c0.06,0.07,0.14,0.11,0.23,0.11s0.2-0.05,0.33-0.16l0.59-0.5c0.13-0.11,0.2-0.21,0.21-0.3s-0.01-0.17-0.07-0.25
				c-0.08-0.09-0.18-0.13-0.31-0.11c-0.06,0.01-0.16,0.07-0.29,0.18l-0.79-0.93c0.03-0.27,0.07-0.46,0.13-0.58
				c0.05-0.12,0.14-0.23,0.25-0.32c0.16-0.13,0.3-0.2,0.44-0.2c0.1,0,0.21,0.06,0.32,0.19l0.76,0.9c-0.13,0.11-0.21,0.19-0.23,0.26
				c-0.04,0.12-0.02,0.22,0.06,0.31c0.06,0.07,0.14,0.11,0.23,0.11s0.2-0.05,0.32-0.16l0.6-0.5c0.13-0.11,0.2-0.21,0.21-0.3
				c0.01-0.09-0.01-0.17-0.07-0.25C31.46,36.27,31.36,36.24,31.23,36.26z"/>
			<path class="st0" d="M33.55,32.82c-0.26-0.13-0.55-0.17-0.87-0.13s-0.61,0.14-0.87,0.32c-0.26,0.17-0.46,0.4-0.62,0.67
				c-0.16,0.28-0.23,0.56-0.21,0.85c0.01,0.29,0.09,0.55,0.24,0.76c0.14,0.21,0.34,0.38,0.59,0.49c0.25,0.11,0.54,0.15,0.85,0.1
				c0.31-0.04,0.6-0.15,0.86-0.33c0.26-0.17,0.47-0.4,0.64-0.67c0.16-0.28,0.24-0.55,0.23-0.83c-0.01-0.27-0.08-0.52-0.22-0.72
				C34.01,33.12,33.81,32.95,33.55,32.82z M33.65,34.37c-0.08,0.26-0.24,0.48-0.5,0.65c-0.25,0.17-0.52,0.24-0.79,0.21
				c-0.27-0.03-0.46-0.13-0.58-0.3c-0.14-0.21-0.17-0.44-0.1-0.72c0.07-0.27,0.23-0.49,0.49-0.66c0.29-0.19,0.59-0.25,0.91-0.18
				c0.23,0.06,0.4,0.17,0.52,0.35C33.71,33.89,33.72,34.11,33.65,34.37z"/>
			<path class="st0" d="M38.18,32.08c-0.09-0.02-0.2,0-0.32,0.07l-0.57-1.06c-0.15-0.27-0.35-0.45-0.6-0.52
				c-0.32-0.1-0.66-0.05-1.02,0.14c-0.15,0.08-0.29,0.18-0.39,0.3c-0.11,0.12-0.19,0.25-0.25,0.4l-0.1-0.19l-0.57,0.31
				c-0.15,0.08-0.23,0.16-0.27,0.25c-0.03,0.09-0.03,0.17,0.02,0.25c0.04,0.08,0.11,0.14,0.2,0.16s0.2,0,0.33-0.07l0.75,1.39
				c-0.15,0.08-0.25,0.15-0.28,0.21c-0.06,0.11-0.07,0.21-0.01,0.32c0.05,0.09,0.11,0.14,0.21,0.16s0.21-0.01,0.35-0.09l0.68-0.37
				c0.15-0.08,0.23-0.16,0.27-0.25c0.03-0.09,0.03-0.17-0.02-0.25c-0.06-0.11-0.15-0.16-0.28-0.17c-0.06,0-0.17,0.04-0.32,0.12
				l-0.57-1.06c0.07-0.25,0.15-0.43,0.22-0.54c0.08-0.11,0.19-0.2,0.32-0.27c0.18-0.1,0.34-0.14,0.47-0.11
				c0.1,0.02,0.19,0.09,0.25,0.22l0.58,1.08c-0.13,0.07-0.21,0.15-0.24,0.23c-0.03,0.09-0.03,0.17,0.02,0.25
				c0.05,0.09,0.11,0.14,0.21,0.16c0.09,0.02,0.21-0.01,0.35-0.09l0.54-0.29c0.15-0.08,0.23-0.16,0.27-0.25
				c0.03-0.09,0.03-0.17-0.02-0.25C38.33,32.15,38.27,32.1,38.18,32.08z"/>
			<path class="st0" d="M41.87,30.41c-0.09-0.03-0.21-0.01-0.36,0.06l-0.11,0.05l-0.54-1.22c-0.12-0.28-0.33-0.45-0.61-0.51
				c-0.29-0.06-0.62-0.01-1.01,0.16c-0.13,0.06-0.27,0.13-0.42,0.23c-0.15,0.1-0.29,0.2-0.43,0.31c-0.1,0.08-0.17,0.14-0.19,0.18
				c-0.03,0.04-0.04,0.08-0.05,0.13s0.01,0.09,0.03,0.14c0.04,0.09,0.1,0.15,0.18,0.18c0.08,0.03,0.17,0.03,0.25-0.01
				c0.06-0.03,0.14-0.08,0.24-0.15c0.26-0.2,0.49-0.34,0.67-0.43c0.23-0.1,0.39-0.14,0.5-0.12c0.11,0.02,0.18,0.07,0.22,0.16
				l0.06,0.14c-0.27,0.07-0.49,0.15-0.68,0.23c-0.47,0.21-0.79,0.48-0.97,0.81c-0.17,0.33-0.2,0.62-0.09,0.87
				c0.09,0.2,0.28,0.34,0.56,0.42c0.28,0.08,0.59,0.04,0.93-0.11c0.15-0.07,0.32-0.17,0.49-0.29c0.17-0.12,0.32-0.26,0.44-0.41
				l0.06,0.14l0.73-0.33c0.15-0.07,0.25-0.14,0.29-0.23s0.04-0.17,0-0.26C42.03,30.5,41.96,30.44,41.87,30.41z M40.28,31.04
				c-0.17,0.14-0.32,0.24-0.47,0.31c-0.18,0.08-0.33,0.11-0.46,0.09c-0.07-0.01-0.12-0.04-0.14-0.1c-0.03-0.08-0.01-0.18,0.07-0.3
				c0.13-0.2,0.32-0.36,0.58-0.47c0.21-0.09,0.45-0.17,0.72-0.24l0.11,0.25C40.58,30.75,40.45,30.9,40.28,31.04z"/>
			<path class="st0" d="M45.69,28.99c-0.09-0.03-0.2-0.02-0.33,0.03l-0.42-1.13c-0.11-0.29-0.28-0.49-0.52-0.6
				c-0.3-0.14-0.65-0.14-1.03,0c-0.17,0.06-0.31,0.14-0.43,0.24c-0.12,0.1-0.23,0.22-0.31,0.36l-0.08-0.21l-0.61,0.23
				c-0.15,0.06-0.25,0.13-0.3,0.21c-0.04,0.08-0.05,0.17-0.02,0.25s0.09,0.15,0.18,0.18c0.09,0.03,0.2,0.03,0.33-0.02L42.71,30
				c-0.17,0.06-0.27,0.12-0.31,0.16c-0.08,0.1-0.1,0.2-0.06,0.31c0.03,0.09,0.09,0.15,0.18,0.19c0.09,0.03,0.21,0.02,0.36-0.04
				l0.73-0.27c0.15-0.06,0.25-0.13,0.3-0.21s0.05-0.17,0.02-0.25c-0.04-0.12-0.13-0.18-0.25-0.21c-0.06-0.01-0.17,0.01-0.34,0.07
				l-0.42-1.13c0.11-0.24,0.21-0.41,0.3-0.5c0.09-0.1,0.21-0.17,0.36-0.23c0.2-0.07,0.36-0.09,0.49-0.04
				c0.1,0.03,0.17,0.12,0.22,0.25l0.42,1.15c-0.14,0.05-0.23,0.12-0.27,0.2c-0.04,0.08-0.05,0.17-0.02,0.25
				c0.03,0.09,0.09,0.15,0.18,0.19s0.21,0.02,0.36-0.04l0.58-0.21c0.15-0.06,0.25-0.13,0.3-0.21c0.05-0.08,0.05-0.17,0.02-0.25
				C45.84,29.09,45.78,29.03,45.69,28.99z"/>
			<path class="st0" d="M53.25,25.84c-0.14-0.13-0.34-0.23-0.57-0.3c0.09-0.13,0.15-0.26,0.17-0.4s0.02-0.27-0.01-0.41
				c-0.07-0.29-0.25-0.51-0.55-0.66c-0.29-0.15-0.64-0.18-1.04-0.08l-1.67,0.41c-0.16,0.04-0.27,0.1-0.32,0.17s-0.07,0.16-0.05,0.25
				c0.02,0.09,0.08,0.16,0.16,0.2c0.08,0.04,0.2,0.04,0.36,0l0.1-0.03l0.61,2.47l-0.1,0.03c-0.16,0.04-0.26,0.1-0.32,0.17
				s-0.07,0.16-0.05,0.25c0.02,0.09,0.08,0.16,0.16,0.2c0.08,0.04,0.2,0.04,0.36,0l1.95-0.48c0.24-0.06,0.43-0.14,0.58-0.23
				s0.26-0.2,0.35-0.31c0.07-0.08,0.12-0.18,0.15-0.3c0.04-0.16,0.04-0.31,0-0.47C53.49,26.14,53.39,25.97,53.25,25.84z
				 M50.51,24.85l0.87-0.21c0.24-0.06,0.43-0.06,0.56,0c0.13,0.06,0.21,0.14,0.24,0.25c0.03,0.13,0,0.24-0.1,0.36
				c-0.14,0.17-0.34,0.28-0.61,0.35l-0.73,0.18L50.51,24.85z M52.81,26.78c-0.09,0.1-0.27,0.19-0.54,0.25l-1.15,0.28l-0.23-0.92
				l0.88-0.22c0.31-0.08,0.56-0.07,0.76,0.01s0.31,0.19,0.34,0.31C52.9,26.61,52.88,26.7,52.81,26.78z"/>
			<path class="st0" d="M57.17,25.88c-0.07,0.01-0.18,0.06-0.34,0.13c-0.39,0.18-0.71,0.3-0.96,0.35c-0.3,0.06-0.55,0.06-0.75-0.01
				c-0.2-0.07-0.35-0.18-0.45-0.33l2.76-0.54l-0.05-0.27c-0.04-0.21-0.11-0.38-0.21-0.53c-0.15-0.21-0.31-0.37-0.5-0.49
				c-0.13-0.08-0.32-0.15-0.57-0.2c-0.25-0.05-0.51-0.04-0.78,0.01c-0.45,0.09-0.83,0.31-1.12,0.66c-0.29,0.35-0.4,0.75-0.31,1.2
				c0.08,0.42,0.31,0.74,0.69,0.97s0.84,0.29,1.37,0.18c0.31-0.06,0.63-0.16,0.96-0.29c0.33-0.14,0.52-0.25,0.6-0.34
				c0.05-0.07,0.07-0.15,0.06-0.23c-0.02-0.09-0.06-0.16-0.14-0.21C57.34,25.88,57.26,25.86,57.17,25.88z M54.56,25.38
				c0.07-0.2,0.18-0.37,0.33-0.49s0.34-0.21,0.56-0.25c0.23-0.04,0.44-0.04,0.62,0.02c0.18,0.06,0.34,0.17,0.48,0.33L54.56,25.38z"
				/>
			<path class="st0" d="M61.24,25.36l-0.12,0.02l-0.2-1.32c-0.04-0.3-0.2-0.52-0.45-0.66c-0.26-0.14-0.6-0.18-1.02-0.11
				c-0.14,0.02-0.3,0.06-0.47,0.11c-0.17,0.05-0.34,0.11-0.5,0.18c-0.12,0.05-0.2,0.09-0.23,0.12c-0.04,0.03-0.06,0.07-0.08,0.11
				s-0.02,0.09-0.01,0.15c0.01,0.1,0.06,0.17,0.13,0.22c0.07,0.05,0.15,0.07,0.24,0.06c0.07-0.01,0.16-0.04,0.27-0.08
				c0.31-0.12,0.56-0.2,0.76-0.23c0.24-0.04,0.41-0.03,0.51,0.02c0.1,0.05,0.15,0.12,0.17,0.22l0.02,0.15
				c-0.27,0-0.51,0.01-0.72,0.04c-0.51,0.08-0.89,0.25-1.15,0.52c-0.26,0.27-0.36,0.55-0.32,0.82c0.03,0.22,0.18,0.41,0.43,0.56
				c0.25,0.15,0.56,0.2,0.93,0.14c0.17-0.02,0.35-0.07,0.55-0.15c0.2-0.07,0.38-0.17,0.53-0.28l0.02,0.15L61.34,26
				c0.16-0.02,0.27-0.07,0.33-0.14s0.08-0.15,0.07-0.25c-0.01-0.1-0.06-0.17-0.14-0.22S61.41,25.34,61.24,25.36z M59.9,25.58
				c-0.2,0.09-0.38,0.15-0.54,0.17c-0.19,0.03-0.35,0.02-0.47-0.04c-0.06-0.03-0.1-0.07-0.11-0.13c-0.01-0.08,0.04-0.18,0.15-0.27
				c0.18-0.16,0.41-0.26,0.68-0.3c0.23-0.03,0.48-0.05,0.76-0.04l0.04,0.28C60.27,25.38,60.1,25.49,59.9,25.58z"/>
			<path class="st0" d="M65.34,24.64c-0.08,0.01-0.16,0.06-0.25,0.15c-0.09,0.09-0.18,0.16-0.28,0.2c-0.17,0.07-0.4,0.13-0.69,0.15
				c-0.43,0.05-0.75,0-0.95-0.12c-0.2-0.13-0.31-0.32-0.34-0.57c-0.03-0.27,0.04-0.51,0.22-0.71c0.18-0.2,0.42-0.31,0.74-0.35
				c0.28-0.03,0.51,0,0.7,0.08c0.11,0.05,0.18,0.13,0.22,0.24s0.08,0.19,0.13,0.22C64.92,23.98,65,24,65.1,23.99
				c0.1-0.01,0.18-0.05,0.24-0.12c0.06-0.07,0.08-0.19,0.06-0.34l-0.04-0.42c-0.02-0.15-0.06-0.26-0.13-0.32
				c-0.07-0.06-0.15-0.08-0.25-0.07c-0.09,0.01-0.17,0.05-0.24,0.14c-0.14-0.05-0.3-0.09-0.46-0.1c-0.17-0.02-0.34-0.02-0.53,0
				c-0.52,0.05-0.93,0.25-1.22,0.58s-0.41,0.73-0.37,1.19c0.05,0.49,0.29,0.85,0.72,1.08c0.32,0.18,0.74,0.24,1.27,0.18
				c0.59-0.06,1.03-0.2,1.31-0.43c0.19-0.15,0.28-0.3,0.27-0.44c-0.01-0.09-0.05-0.16-0.13-0.22S65.43,24.63,65.34,24.64z"/>
			<path class="st0" d="M69.75,24.65c-0.06-0.03-0.17-0.04-0.34-0.03l-0.08-1.22c-0.02-0.25-0.09-0.45-0.22-0.61
				s-0.29-0.27-0.48-0.33s-0.4-0.09-0.64-0.07c-0.15,0.01-0.29,0.04-0.44,0.09c-0.14,0.05-0.28,0.12-0.42,0.21l-0.09-1.38l-0.8,0.05
				c-0.16,0.01-0.28,0.05-0.35,0.11c-0.07,0.06-0.1,0.14-0.09,0.24c0.01,0.1,0.05,0.17,0.12,0.23c0.07,0.06,0.19,0.08,0.36,0.07
				L66.4,22l0.18,2.81c-0.17,0.01-0.29,0.03-0.34,0.07c-0.1,0.07-0.15,0.17-0.15,0.29c0.01,0.1,0.05,0.17,0.12,0.23
				s0.19,0.08,0.36,0.07l0.78-0.05c0.16-0.01,0.28-0.05,0.35-0.11c0.07-0.06,0.1-0.14,0.09-0.24c-0.01-0.12-0.07-0.21-0.18-0.27
				c-0.05-0.03-0.17-0.04-0.34-0.03l-0.08-1.21c0.19-0.2,0.34-0.33,0.45-0.39c0.11-0.06,0.25-0.1,0.4-0.11
				c0.2-0.01,0.36,0.02,0.47,0.11c0.08,0.06,0.13,0.18,0.14,0.34l0.07,1.17c-0.17,0.01-0.28,0.03-0.34,0.07
				c-0.1,0.07-0.15,0.17-0.14,0.29c0.01,0.1,0.05,0.17,0.12,0.23s0.19,0.08,0.35,0.07l0.78-0.05c0.16-0.01,0.28-0.05,0.34-0.11
				c0.06-0.06,0.09-0.14,0.09-0.24C69.92,24.8,69.86,24.71,69.75,24.65z"/>
			<path class="st0" d="M73.54,24.24c-0.08,0-0.16,0.04-0.26,0.13c-0.09,0.08-0.19,0.14-0.3,0.18c-0.18,0.06-0.41,0.09-0.7,0.1
				c-0.43,0.01-0.75-0.06-0.94-0.2c-0.19-0.14-0.29-0.34-0.29-0.59c-0.01-0.27,0.09-0.5,0.28-0.69c0.19-0.18,0.45-0.28,0.77-0.29
				c0.28-0.01,0.51,0.04,0.69,0.14c0.1,0.05,0.17,0.14,0.2,0.26c0.03,0.12,0.07,0.19,0.12,0.23c0.07,0.05,0.15,0.07,0.24,0.07
				c0.1,0,0.18-0.04,0.25-0.1c0.06-0.07,0.09-0.18,0.09-0.33l-0.01-0.42c0-0.15-0.04-0.26-0.1-0.33c-0.06-0.07-0.15-0.1-0.24-0.09
				c-0.09,0-0.17,0.04-0.25,0.12c-0.14-0.06-0.29-0.11-0.45-0.14c-0.16-0.03-0.34-0.04-0.53-0.04c-0.52,0.01-0.94,0.17-1.26,0.48
				c-0.32,0.31-0.47,0.7-0.46,1.16c0.01,0.49,0.22,0.87,0.63,1.14c0.3,0.2,0.72,0.3,1.25,0.29c0.59-0.01,1.04-0.12,1.34-0.32
				c0.2-0.13,0.3-0.27,0.3-0.42c0-0.09-0.04-0.17-0.11-0.23S73.64,24.24,73.54,24.24z"/>
			<path class="st0" d="M77.56,24.56l-0.12,0l0.02-1.34c0.01-0.3-0.11-0.54-0.34-0.72c-0.23-0.18-0.56-0.27-0.99-0.28
				c-0.14,0-0.3,0.01-0.48,0.03s-0.35,0.06-0.52,0.1c-0.13,0.03-0.21,0.06-0.25,0.08c-0.04,0.02-0.07,0.06-0.1,0.1
				c-0.02,0.04-0.03,0.09-0.04,0.14c0,0.1,0.03,0.18,0.09,0.24c0.06,0.06,0.14,0.1,0.23,0.1c0.07,0,0.16-0.01,0.28-0.04
				c0.32-0.07,0.59-0.1,0.79-0.1c0.25,0,0.41,0.04,0.5,0.1c0.09,0.06,0.13,0.14,0.13,0.24l0,0.16c-0.27-0.05-0.51-0.07-0.72-0.08
				c-0.52-0.01-0.92,0.1-1.22,0.33c-0.3,0.23-0.45,0.48-0.45,0.75c0,0.22,0.11,0.43,0.33,0.62c0.23,0.19,0.52,0.29,0.89,0.29
				c0.17,0,0.36-0.02,0.56-0.06c0.21-0.04,0.4-0.1,0.57-0.19l0,0.15l0.8,0.01c0.16,0,0.28-0.03,0.35-0.08s0.11-0.14,0.11-0.23
				c0-0.1-0.03-0.18-0.1-0.24C77.84,24.59,77.73,24.56,77.56,24.56z M76.77,24.31c-0.16,0.1-0.35,0.18-0.56,0.24
				c-0.21,0.06-0.4,0.08-0.56,0.08c-0.19,0-0.35-0.04-0.46-0.11c-0.06-0.04-0.09-0.09-0.09-0.15c0-0.08,0.06-0.17,0.19-0.25
				c0.2-0.13,0.44-0.19,0.72-0.18c0.23,0,0.48,0.03,0.76,0.09L76.77,24.31z"/>
			<path class="st0" d="M81.68,21.35c-0.25-0.05-0.46-0.08-0.65-0.09c-0.42-0.02-0.75,0.05-0.99,0.22c-0.23,0.17-0.36,0.4-0.38,0.69
				l-0.01,0.25l-0.33-0.02c-0.16-0.01-0.28,0.01-0.36,0.07c-0.07,0.06-0.11,0.13-0.12,0.23c-0.01,0.1,0.02,0.18,0.09,0.24
				c0.07,0.06,0.18,0.1,0.35,0.11l0.33,0.02l-0.09,1.58l-0.41-0.02c-0.16-0.01-0.28,0.01-0.36,0.07s-0.11,0.13-0.12,0.23
				c-0.01,0.1,0.02,0.18,0.09,0.24c0.07,0.06,0.18,0.1,0.35,0.11l2.06,0.12c0.16,0.01,0.28-0.01,0.36-0.07
				c0.07-0.06,0.11-0.13,0.12-0.23c0.01-0.1-0.02-0.18-0.09-0.24c-0.07-0.06-0.18-0.1-0.35-0.11l-0.97-0.06l0.09-1.58l1.05,0.06
				c0.16,0.01,0.28-0.01,0.36-0.07s0.11-0.13,0.12-0.23c0.01-0.1-0.02-0.18-0.09-0.24c-0.07-0.06-0.18-0.1-0.35-0.11l-1.05-0.06
				l0.01-0.25c0.01-0.09,0.05-0.17,0.14-0.23c0.09-0.06,0.25-0.08,0.47-0.07c0.22,0.01,0.47,0.05,0.75,0.12
				c0.08,0.02,0.15,0.03,0.19,0.03c0.09,0.01,0.17-0.02,0.24-0.08c0.07-0.06,0.1-0.14,0.11-0.24c0-0.09-0.03-0.17-0.09-0.23
				C82.08,21.45,81.93,21.39,81.68,21.35z"/>
			<path class="st0" d="M85.7,23.25c-0.1-0.12-0.26-0.24-0.49-0.35c-0.22-0.12-0.47-0.19-0.75-0.21C84,22.64,83.58,22.75,83.2,23
				c-0.38,0.25-0.59,0.6-0.64,1.06c-0.04,0.43,0.09,0.8,0.38,1.13c0.3,0.32,0.72,0.51,1.26,0.57c0.32,0.03,0.65,0.03,1-0.01
				s0.57-0.09,0.67-0.16c0.07-0.05,0.11-0.12,0.12-0.2c0.01-0.09-0.01-0.17-0.07-0.24c-0.06-0.07-0.13-0.1-0.22-0.11
				c-0.07-0.01-0.19,0-0.37,0.03c-0.43,0.06-0.77,0.08-1.02,0.06c-0.31-0.03-0.55-0.11-0.72-0.23c-0.17-0.12-0.28-0.27-0.34-0.44
				l2.79,0.27l0.03-0.27c0.02-0.21,0-0.4-0.05-0.57C85.96,23.63,85.84,23.42,85.7,23.25z M83.35,23.79c0.12-0.17,0.28-0.3,0.45-0.37
				c0.18-0.08,0.38-0.1,0.61-0.08c0.23,0.02,0.43,0.09,0.59,0.2c0.16,0.11,0.28,0.26,0.37,0.46L83.35,23.79z"/>
			<path class="st0" d="M94.05,26.46c-0.12-0.28-0.22-0.49-0.3-0.63c-0.13-0.22-0.25-0.4-0.37-0.54c0.27-0.08,0.48-0.19,0.64-0.33
				c0.15-0.14,0.25-0.31,0.29-0.51c0.06-0.32-0.02-0.62-0.24-0.89c-0.22-0.27-0.57-0.45-1.04-0.54l-1.52-0.29
				c-0.16-0.03-0.28-0.02-0.36,0.02c-0.08,0.05-0.13,0.12-0.15,0.21c-0.02,0.1,0,0.18,0.06,0.25s0.17,0.12,0.33,0.15l0.1,0.02
				l-0.47,2.5l-0.1-0.02c-0.16-0.03-0.28-0.02-0.36,0.02c-0.08,0.05-0.13,0.12-0.15,0.21c-0.02,0.1,0,0.18,0.06,0.25
				c0.06,0.07,0.17,0.12,0.33,0.15l1.02,0.19c0.16,0.03,0.28,0.02,0.36-0.02c0.08-0.05,0.13-0.12,0.15-0.21
				c0.02-0.1,0-0.18-0.06-0.25c-0.06-0.07-0.17-0.12-0.33-0.15l-0.24-0.05l0.15-0.8l0.67,0.13c0.33,0.23,0.69,0.79,1.08,1.7
				l0.38,0.07c0.16,0.03,0.28,0.02,0.36-0.02c0.08-0.05,0.13-0.12,0.14-0.21c0.02-0.12-0.01-0.22-0.1-0.3
				C94.33,26.53,94.22,26.49,94.05,26.46z M92.48,24.67l-0.52-0.1l0.2-1.06l0.77,0.14c0.26,0.05,0.45,0.14,0.56,0.27
				s0.16,0.25,0.14,0.37c-0.02,0.08-0.07,0.16-0.15,0.23c-0.09,0.07-0.24,0.12-0.46,0.16C92.85,24.71,92.67,24.71,92.48,24.67z"/>
			<path class="st0" d="M97.99,25.46c-0.09-0.13-0.23-0.27-0.44-0.41c-0.21-0.14-0.44-0.25-0.71-0.31
				c-0.45-0.11-0.88-0.06-1.29,0.13c-0.41,0.2-0.67,0.52-0.78,0.96c-0.1,0.42-0.02,0.81,0.23,1.17c0.25,0.36,0.64,0.61,1.18,0.73
				c0.31,0.07,0.64,0.12,0.99,0.13c0.35,0.01,0.58-0.01,0.69-0.07c0.08-0.04,0.13-0.1,0.15-0.19c0.02-0.09,0.01-0.17-0.04-0.25
				c-0.05-0.07-0.11-0.12-0.2-0.14c-0.06-0.02-0.19-0.02-0.37-0.02c-0.43,0-0.77-0.02-1.02-0.08c-0.3-0.07-0.53-0.18-0.68-0.32
				c-0.15-0.14-0.24-0.3-0.27-0.49l2.73,0.65l0.06-0.27c0.05-0.21,0.06-0.4,0.03-0.57C98.2,25.86,98.11,25.65,97.99,25.46z
				 M95.6,25.67c0.15-0.16,0.31-0.26,0.5-0.31c0.19-0.05,0.39-0.05,0.62,0c0.23,0.05,0.41,0.15,0.56,0.27
				c0.14,0.13,0.24,0.3,0.3,0.5L95.6,25.67z"/>
			<path class="st0" d="M102.02,26.22c-0.03-0.01-0.06-0.01-0.1-0.01s-0.08,0.01-0.13,0.03c-0.11-0.09-0.23-0.18-0.36-0.24
				c-0.13-0.07-0.27-0.13-0.43-0.17c-0.44-0.13-0.82-0.13-1.15-0.01c-0.24,0.09-0.4,0.25-0.46,0.47c-0.06,0.22-0.03,0.43,0.1,0.63
				c0.13,0.2,0.46,0.41,0.97,0.62c0.34,0.14,0.56,0.25,0.66,0.34c0.1,0.09,0.13,0.17,0.11,0.25c-0.01,0.05-0.07,0.08-0.16,0.1
				c-0.19,0.04-0.44,0.02-0.74-0.07c-0.18-0.05-0.34-0.12-0.47-0.21c-0.13-0.08-0.23-0.18-0.31-0.29c0-0.11-0.02-0.19-0.06-0.25
				c-0.04-0.06-0.1-0.1-0.18-0.12c-0.1-0.03-0.19-0.02-0.27,0.03c-0.08,0.05-0.14,0.14-0.19,0.29l-0.06,0.21
				c-0.04,0.15-0.04,0.27,0,0.35c0.04,0.08,0.11,0.14,0.22,0.17c0.04,0.01,0.08,0.02,0.12,0.01s0.08-0.01,0.12-0.03
				c0.12,0.1,0.25,0.19,0.4,0.27s0.32,0.15,0.51,0.2c0.47,0.14,0.89,0.14,1.25,0.02c0.25-0.09,0.41-0.25,0.48-0.47
				c0.05-0.16,0.03-0.34-0.04-0.52c-0.08-0.18-0.22-0.35-0.42-0.49c-0.15-0.11-0.44-0.25-0.86-0.44c-0.23-0.1-0.37-0.18-0.43-0.23
				c-0.08-0.07-0.11-0.13-0.09-0.18c0.01-0.04,0.06-0.07,0.13-0.08c0.17-0.04,0.39-0.02,0.64,0.06c0.13,0.04,0.25,0.09,0.35,0.16
				c0.11,0.07,0.21,0.15,0.29,0.24c-0.01,0.08,0.01,0.16,0.06,0.22c0.05,0.06,0.11,0.11,0.19,0.13c0.12,0.03,0.22,0.02,0.32-0.06
				c0.05-0.04,0.09-0.13,0.13-0.26l0.04-0.15c0.04-0.15,0.05-0.27,0-0.35C102.17,26.3,102.11,26.25,102.02,26.22z"/>
			<path class="st0" d="M106,27.58l-1.19-0.43l0.2-0.55c0.05-0.15,0.06-0.26,0.02-0.35s-0.1-0.14-0.2-0.18
				c-0.1-0.03-0.19-0.03-0.27,0.01c-0.08,0.04-0.15,0.14-0.2,0.28l-0.2,0.55l-0.23-0.08c-0.16-0.06-0.28-0.07-0.36-0.03
				c-0.09,0.03-0.15,0.09-0.18,0.18c-0.03,0.09-0.03,0.18,0.02,0.26c0.05,0.08,0.15,0.15,0.3,0.2l0.23,0.08l-0.48,1.35
				c-0.09,0.24-0.06,0.48,0.08,0.71c0.14,0.24,0.41,0.43,0.81,0.57c0.21,0.07,0.48,0.13,0.81,0.16c0.33,0.03,0.56,0.02,0.7-0.04
				c0.09-0.03,0.15-0.09,0.17-0.17c0.03-0.09,0.03-0.17-0.01-0.25c-0.04-0.08-0.1-0.14-0.19-0.17c-0.06-0.02-0.15-0.03-0.28-0.01
				c-0.33,0.03-0.65-0.01-0.98-0.13c-0.23-0.08-0.37-0.17-0.44-0.27c-0.04-0.06-0.04-0.16,0.01-0.29l0.44-1.23l1.19,0.43
				c0.16,0.06,0.28,0.07,0.36,0.03s0.15-0.09,0.18-0.18c0.03-0.09,0.03-0.18-0.02-0.26C106.26,27.71,106.16,27.64,106,27.58z"/>
			<path class="st0" d="M108.89,28.67c-0.13-0.06-0.28-0.11-0.45-0.15c-0.17-0.05-0.34-0.08-0.52-0.11
				c-0.13-0.02-0.22-0.03-0.26-0.02s-0.09,0.02-0.12,0.05c-0.04,0.03-0.07,0.07-0.09,0.12c-0.04,0.09-0.04,0.17-0.01,0.26
				c0.03,0.08,0.09,0.14,0.18,0.18c0.06,0.03,0.15,0.05,0.27,0.07c0.33,0.06,0.58,0.13,0.77,0.21c0.23,0.1,0.37,0.19,0.42,0.28
				c0.06,0.09,0.06,0.18,0.03,0.27l-0.06,0.14c-0.23-0.15-0.44-0.26-0.63-0.34c-0.47-0.21-0.89-0.26-1.25-0.16
				c-0.36,0.1-0.6,0.27-0.7,0.52c-0.09,0.21-0.07,0.44,0.07,0.7c0.14,0.26,0.37,0.46,0.71,0.61c0.16,0.07,0.34,0.12,0.54,0.17
				c0.21,0.04,0.41,0.06,0.6,0.05l-0.06,0.14l0.74,0.32c0.15,0.07,0.27,0.08,0.36,0.06c0.09-0.03,0.15-0.08,0.19-0.17
				c0.04-0.09,0.04-0.18,0-0.26c-0.04-0.08-0.14-0.16-0.29-0.22l-0.11-0.05l0.53-1.23c0.12-0.28,0.11-0.54-0.04-0.8
				C109.55,29.05,109.28,28.84,108.89,28.67z M108.67,30.84c-0.19,0.03-0.39,0.04-0.61,0.01s-0.4-0.07-0.55-0.14
				c-0.18-0.08-0.3-0.17-0.38-0.28c-0.04-0.06-0.05-0.12-0.02-0.17c0.03-0.08,0.12-0.13,0.27-0.16c0.24-0.04,0.48,0,0.74,0.11
				c0.21,0.09,0.43,0.22,0.67,0.37L108.67,30.84z"/>
			<path class="st0" d="M112.96,33.23l1.04-1.97l-0.82-0.43c-0.15-0.08-0.26-0.1-0.35-0.08c-0.09,0.02-0.16,0.07-0.2,0.16
				c-0.05,0.09-0.05,0.17-0.02,0.26c0.03,0.09,0.12,0.17,0.27,0.24l0.22,0.11l-0.62,1.17c-0.27,0.01-0.49,0-0.65-0.03
				c-0.17-0.03-0.31-0.07-0.43-0.14c-0.13-0.07-0.21-0.15-0.24-0.24c-0.03-0.09-0.02-0.2,0.05-0.32l0.9-1.71l-0.71-0.37
				c-0.15-0.08-0.26-0.1-0.35-0.08c-0.09,0.02-0.16,0.07-0.2,0.16c-0.05,0.09-0.05,0.17-0.02,0.26c0.03,0.09,0.12,0.17,0.27,0.24
				l0.1,0.05l-0.65,1.24c-0.08,0.15-0.12,0.29-0.11,0.43c0.01,0.18,0.07,0.35,0.17,0.51s0.26,0.29,0.45,0.39
				c0.14,0.07,0.3,0.13,0.48,0.18c0.18,0.05,0.37,0.08,0.58,0.09l-0.07,0.13l0.58,0.3c0.15,0.08,0.26,0.1,0.35,0.08
				c0.09-0.02,0.16-0.07,0.2-0.16c0.04-0.08,0.05-0.17,0.02-0.26C113.17,33.38,113.09,33.3,112.96,33.23z"/>
			<path class="st0" d="M117.24,34.23c0.08,0.05,0.17,0.07,0.26,0.05c0.09-0.02,0.16-0.06,0.21-0.14c0.06-0.09,0.06-0.22,0-0.39
				c-0.09-0.25-0.23-0.43-0.42-0.55c-0.12-0.08-0.27-0.14-0.44-0.17c-0.17-0.04-0.44-0.05-0.78-0.04l0.22-0.34l-0.78-0.51
				c-0.14-0.09-0.25-0.13-0.34-0.12c-0.09,0.01-0.16,0.06-0.21,0.14c-0.05,0.08-0.07,0.17-0.04,0.26c0.03,0.09,0.11,0.18,0.25,0.27
				l0.21,0.13l-0.86,1.33l-0.34-0.22c-0.14-0.09-0.25-0.13-0.34-0.12c-0.09,0.01-0.16,0.06-0.21,0.14
				c-0.05,0.08-0.07,0.17-0.04,0.26c0.03,0.09,0.11,0.18,0.25,0.27l1.74,1.12c0.14,0.09,0.25,0.13,0.34,0.12
				c0.09-0.01,0.16-0.06,0.21-0.14c0.05-0.08,0.07-0.17,0.04-0.26c-0.03-0.09-0.11-0.18-0.25-0.27l-0.82-0.53l0.53-0.82
				c0.36-0.04,0.66-0.05,0.88-0.04c0.22,0.01,0.37,0.04,0.45,0.09c0.06,0.04,0.11,0.12,0.14,0.24
				C117.12,34.11,117.17,34.19,117.24,34.23z"/>
			<path class="st0" d="M119.5,37.82l0.85-1.04c0.19-0.23,0.25-0.49,0.18-0.78c-0.07-0.28-0.27-0.56-0.6-0.83
				c-0.11-0.09-0.24-0.18-0.4-0.27c-0.15-0.09-0.31-0.17-0.47-0.24c-0.12-0.05-0.2-0.08-0.25-0.09c-0.05-0.01-0.09,0-0.13,0.02
				c-0.04,0.02-0.08,0.05-0.12,0.09c-0.06,0.08-0.09,0.16-0.08,0.25s0.05,0.16,0.12,0.22c0.05,0.04,0.13,0.09,0.24,0.15
				c0.3,0.15,0.53,0.28,0.68,0.41c0.19,0.16,0.3,0.29,0.33,0.39s0.01,0.19-0.05,0.27l-0.1,0.12c-0.18-0.2-0.36-0.37-0.52-0.5
				c-0.4-0.33-0.79-0.49-1.16-0.5c-0.37,0-0.65,0.1-0.82,0.31c-0.14,0.17-0.18,0.4-0.12,0.69c0.06,0.29,0.23,0.55,0.52,0.78
				c0.13,0.11,0.29,0.21,0.48,0.31c0.19,0.1,0.38,0.17,0.56,0.21l-0.1,0.12l0.62,0.51c0.13,0.1,0.24,0.15,0.33,0.15
				s0.17-0.04,0.23-0.11c0.06-0.08,0.08-0.16,0.07-0.25c-0.02-0.09-0.09-0.19-0.22-0.29L119.5,37.82z M119.12,37.2
				c-0.19-0.02-0.39-0.07-0.59-0.16c-0.2-0.08-0.36-0.18-0.49-0.28c-0.15-0.12-0.25-0.25-0.29-0.37c-0.02-0.07-0.01-0.12,0.02-0.17
				c0.05-0.07,0.15-0.09,0.3-0.08c0.24,0.03,0.46,0.13,0.68,0.3c0.18,0.15,0.36,0.33,0.54,0.54L119.12,37.2z"/>
			<path class="st0" d="M123.32,40.01c0.23-0.21,0.35-0.45,0.36-0.71c0.02-0.33-0.11-0.65-0.39-0.95c-0.12-0.13-0.25-0.23-0.39-0.31
				c-0.14-0.08-0.29-0.13-0.45-0.15l0.16-0.15l-0.44-0.48c-0.11-0.12-0.21-0.19-0.31-0.2c-0.09-0.01-0.17,0.02-0.24,0.08
				s-0.1,0.14-0.1,0.23c0,0.09,0.05,0.19,0.15,0.3l-1.16,1.07c-0.12-0.13-0.21-0.2-0.27-0.22c-0.12-0.03-0.22-0.01-0.31,0.07
				c-0.07,0.07-0.11,0.15-0.1,0.24c0,0.09,0.06,0.2,0.17,0.32l0.53,0.57c0.11,0.12,0.21,0.19,0.31,0.2s0.17-0.02,0.24-0.08
				c0.09-0.08,0.12-0.19,0.09-0.31c-0.01-0.06-0.08-0.15-0.2-0.28l0.89-0.82c0.26,0.01,0.45,0.03,0.58,0.08
				c0.12,0.05,0.24,0.13,0.35,0.25c0.14,0.15,0.22,0.3,0.23,0.43c0.01,0.1-0.04,0.2-0.15,0.3l-0.9,0.83
				c-0.1-0.11-0.19-0.16-0.28-0.17c-0.09-0.01-0.17,0.02-0.24,0.08c-0.07,0.07-0.11,0.15-0.1,0.24s0.06,0.2,0.17,0.32l0.42,0.45
				c0.11,0.12,0.21,0.19,0.31,0.2s0.17-0.02,0.24-0.08c0.07-0.07,0.11-0.14,0.1-0.24c0-0.09-0.05-0.19-0.15-0.3L123.32,40.01z"/>
			<path class="st0" d="M125.71,41.61l0.5-0.31c0.13-0.08,0.21-0.17,0.23-0.26c0.02-0.09,0.01-0.18-0.05-0.26
				c-0.05-0.09-0.13-0.14-0.22-0.16c-0.09-0.02-0.2,0.01-0.33,0.1l-0.5,0.31l-0.13-0.21c-0.09-0.14-0.18-0.22-0.26-0.25
				s-0.17-0.02-0.25,0.04c-0.08,0.05-0.13,0.12-0.14,0.21c-0.01,0.09,0.02,0.21,0.11,0.35l0.13,0.21l-1.21,0.76
				c-0.21,0.14-0.34,0.34-0.37,0.61c-0.03,0.27,0.06,0.59,0.29,0.95c0.12,0.19,0.3,0.39,0.54,0.62c0.24,0.23,0.43,0.36,0.58,0.4
				c0.09,0.03,0.17,0.02,0.24-0.03c0.08-0.05,0.12-0.12,0.14-0.21s0-0.17-0.04-0.25c-0.03-0.05-0.1-0.12-0.21-0.18
				c-0.28-0.17-0.51-0.41-0.7-0.71c-0.13-0.2-0.19-0.36-0.18-0.48c0.01-0.07,0.07-0.15,0.19-0.22l1.1-0.7l0.68,1.07
				c0.09,0.14,0.18,0.22,0.26,0.25s0.17,0.02,0.25-0.04c0.08-0.05,0.13-0.12,0.14-0.21c0.01-0.09-0.02-0.21-0.11-0.35L125.71,41.61z
				"/>
			<path class="st0" d="M17.32,39.2c-0.19-0.28-0.38-0.44-0.57-0.48c-0.19-0.04-0.37-0.01-0.54,0.11c-0.17,0.12-0.27,0.28-0.29,0.47
				s0.06,0.43,0.25,0.7l0.54,0.77l-4.5,3.13l-0.88-1.26l1.09-0.76c0.28-0.19,0.44-0.38,0.48-0.57c0.04-0.19,0.01-0.37-0.11-0.54
				c-0.12-0.17-0.28-0.27-0.47-0.29c-0.19-0.03-0.43,0.06-0.7,0.25l-2.24,1.56l4.15,5.96l2.24-1.56c0.28-0.19,0.44-0.38,0.48-0.57
				c0.04-0.19,0.01-0.37-0.11-0.54c-0.12-0.17-0.28-0.27-0.47-0.29s-0.43,0.06-0.7,0.25l-1.09,0.76l-0.87-1.24l4.5-3.13l0.54,0.77
				c0.19,0.28,0.38,0.44,0.57,0.48c0.19,0.04,0.37,0.01,0.54-0.11c0.17-0.12,0.27-0.28,0.29-0.47c0.02-0.19-0.06-0.43-0.25-0.7
				L17.32,39.2z"/>
			<path class="st0" d="M9.57,40.5c0.03-0.18-0.01-0.37-0.13-0.59l4.5-3.13c0.2,0.29,0.36,0.47,0.48,0.51
				c0.24,0.1,0.47,0.08,0.68-0.07c0.17-0.12,0.27-0.28,0.29-0.47s-0.06-0.43-0.25-0.7l-0.98-1.41c-0.19-0.28-0.38-0.44-0.57-0.48
				c-0.19-0.04-0.37-0.01-0.54,0.11c-0.17,0.12-0.27,0.28-0.29,0.47s0.06,0.43,0.25,0.7l0.13,0.18l-1.67,1.16l-1.71-2.46l1.67-1.16
				l0.13,0.18c0.19,0.27,0.38,0.43,0.57,0.48s0.37,0.01,0.54-0.11c0.17-0.12,0.27-0.28,0.29-0.47c0.02-0.19-0.06-0.43-0.25-0.7
				l-0.98-1.41c-0.19-0.28-0.38-0.44-0.57-0.48c-0.19-0.04-0.37-0.01-0.54,0.11c-0.21,0.15-0.31,0.36-0.3,0.62
				c0,0.13,0.11,0.33,0.31,0.63l-4.5,3.13c-0.16-0.19-0.33-0.3-0.5-0.33s-0.34,0.01-0.5,0.12c-0.17,0.12-0.27,0.28-0.29,0.47
				c-0.02,0.19,0.06,0.42,0.26,0.7l0.81,1.18c0.19,0.28,0.38,0.44,0.57,0.48s0.37,0.01,0.54-0.11s0.27-0.28,0.29-0.47
				c0.02-0.19-0.06-0.43-0.25-0.7l-0.13-0.18l1.68-1.17l1.71,2.46l-1.68,1.17l-0.13-0.18c-0.19-0.28-0.38-0.44-0.57-0.48
				c-0.19-0.04-0.37-0.01-0.54,0.11S7.13,38.5,7.1,38.69c-0.02,0.19,0.06,0.42,0.25,0.7l0.81,1.18c0.19,0.28,0.38,0.44,0.57,0.48
				s0.37,0.01,0.54-0.11C9.44,40.82,9.54,40.68,9.57,40.5z"/>
			<path class="st0" d="M4.75,33.19l-0.13-0.18l4.5-3.13l0.13,0.18c0.19,0.27,0.38,0.43,0.57,0.48c0.19,0.05,0.37,0.01,0.54-0.11
				c0.17-0.12,0.27-0.28,0.29-0.47c0.02-0.19-0.06-0.43-0.25-0.7l-3.77-5.41l-1.77,1.24c-0.28,0.19-0.44,0.38-0.48,0.57
				c-0.04,0.19-0.01,0.37,0.11,0.54c0.12,0.17,0.28,0.27,0.47,0.29c0.19,0.02,0.43-0.06,0.7-0.25l0.62-0.43l2.04,2.93L6.63,29.9
				l-0.7-1.01c0.3-0.21,0.48-0.37,0.52-0.49c0.1-0.24,0.08-0.47-0.07-0.68c-0.14-0.2-0.34-0.3-0.6-0.3c-0.13,0-0.32,0.09-0.57,0.26
				L3.89,28.6c-0.28,0.19-0.44,0.38-0.48,0.57c-0.04,0.19-0.01,0.37,0.11,0.54c0.15,0.21,0.35,0.31,0.62,0.3
				c0.13,0,0.34-0.11,0.64-0.32l0.7,1.01l-1.66,1.16l-1.87-2.68l0.6-0.42c0.28-0.19,0.44-0.38,0.48-0.57c0.04-0.19,0-0.37-0.12-0.54
				c-0.12-0.17-0.28-0.27-0.47-0.29s-0.42,0.06-0.7,0.25L0,28.83l3.59,5.16c0.19,0.28,0.38,0.44,0.57,0.48
				c0.19,0.04,0.37,0,0.54-0.12c0.17-0.12,0.27-0.28,0.29-0.47C5.02,33.7,4.94,33.46,4.75,33.19z"/>
		</g>
	</g>
</g>
</svg>
